<?xml version="1.0" encoding="utf-8"?>
<!-- Svg Vector Icons : http://www.onlinewebfonts.com/icon -->
<!DOCTYPE svg PUBLIC "-//W3C//DTD SVG 1.1//EN" "http://www.w3.org/Graphics/SVG/1.1/DTD/svg11.dtd">
<svg version="1.1" xmlns="http://www.w3.org/2000/svg" xmlns:xlink="http://www.w3.org/1999/xlink" x="0px" y="0px" viewBox="0 0 1000 1000" enable-background="new 0 0 1000 1000" xml:space="preserve">
<metadata> Svg Vector Icons : http://www.onlinewebfonts.com/icon </metadata>
<g><g transform="translate(0.000000,511.000000) scale(0.100000,-0.100000)"><path d="M1267.6,4979C713.3,4836.4,218.7,4309.6,122.1,3762.2C0.2,3053.8,545.4,2113,1276.8,1770.3c554.3-257.6,1168.5-213.9,1918.3,138c427.8,200.1,768.2,434.7,1111,768.2l211.6,207v-901.6v-901.7H3471.1c-998.3,0-1053.5-2.3-1136.3-46c-117.3-59.8-223.1-188.6-253-312.8c-13.8-52.9-25.3-211.6-25.3-351.9v-253l-798.2-6.9c-777.4-6.9-802.7-9.2-897.1-57.5C253.3-5.4,168.1-111.2,126.7-228.5c-34.5-105.8-36.8-4091.9,0-4220.8c32.2-115,188.6-271.4,310.5-308.2c124.2-36.8,2116.1-39.1,2247.2-2.3c112.7,29.9,241.5,144.9,294.4,262.2c34.5,73.6,43.7,151.8,43.7,397.9v303.6h1978.1h1978.1v-312.8c0-356.5,18.4-418.6,161-547.4c48.3-43.7,128.8-89.7,177.1-103.5c131.1-36.8,2123-34.5,2247.2,2.3c121.9,36.8,271.4,186.3,308.2,308.2c20.7,71.3,27.6,586.5,27.6,2132.2v2035.6l-64.4,121.9c-46,89.7-94.3,142.6-177.1,193.2l-110.4,69l-800.4,6.9l-798.2,6.9l-9.2,303.6c-9.2,324.3-41.4,425.5-161,538.2c-128.8,119.6-144.9,121.9-1260.5,121.9H5483.7v901.7v901.6l202.4-200.1c487.6-485.3,1154.7-864.9,1787.2-1019c841.8-204.7,1635.4,131.1,2102.3,890.2c464.6,756.7,418.6,1442.2-135.7,2001.1c-202.4,202.4-377.2,312.8-644,402.5c-115,39.1-200.1,43.7-885.5,41.4c-1299.6-4.6-1991.9-92-2440.4-308.2c-271.4-131.1-388.7-273.7-460-563.5c-16.1-66.7-16.1-66.7-34.5,36.8c-73.6,469.2-591.1,703.8-1768.8,802.7c-158.7,11.5-627.9,27.6-1046.6,34.5C1534.4,5011.2,1378,5006.6,1267.6,4979z M2056.6,3299.9c0-411.7-2.3-747.5-6.9-747.5c-82.8,0-312.8,66.7-414,119.6c-342.7,181.7-632.5,703.8-547.4,984.5c34.5,119.6,190.9,292.1,312.8,347.3c73.6,34.5,149.5,43.7,374.9,43.7h280.6V3299.9z M8600.4,4003.7c117.3-52.9,278.3-234.6,312.8-347.3c36.8-124.2,9.2-264.5-92-473.8c-156.4-324.3-414-542.8-710.7-604.9c-66.7-13.8-131.1-25.3-142.6-25.3c-13.8,0-23,289.8-23,747.5v747.5h282.9C8450.9,4047.4,8526.8,4038.2,8600.4,4003.7z M3620.6,3955.4c241.5-36.8,368-71.3,368-101.2c0-71.3-190.9-335.8-358.8-494.5c-167.9-161-483-395.6-570.4-430.1c-32.2-13.8-36.8,41.4-36.8,531.3v547.4l225.4-16.1C3369.9,3983,3537.8,3966.9,3620.6,3955.4z M6978.8,3458.6c0-623.3,25.3-581.9-248.4-393.3c-328.9,223.1-717.6,655.5-717.6,795.8c0,43.7,535.9,133.4,823.4,138l142.6,2.3V3458.6z M6978.8-1357.9V-2830h-253h-253v736v736h-483h-483v-736v-736H4264.7H3022.6v1472.1V114.2h1978.1h1978.1V-1357.9z M2056.6-2335.5V-3819H1562h-494.5v1483.6v1483.6H1562h494.5V-2335.5z M8933.9-2335.5V-3819h-494.5h-494.5v1483.6v1483.6h494.5h494.5V-2335.5z"/></g></g>
</svg>